<svg width="64" height="64" viewBox="0 0 64 64" fill="none" xmlns="http://www.w3.org/2000/svg">
<circle cx="32" cy="32" r="16" fill="#94384F"/>
<mask id="path-2-inside-1_57_89" fill="white">
<path d="M59.7128 48C56.1907 54.1005 50.754 58.8684 44.2459 61.5641C37.7378 64.2599 30.5221 64.7328 23.7178 62.9096C16.9135 61.0864 10.901 57.069 6.61269 51.4804C2.3244 45.8918 6.43786e-07 39.0443 0 32C-6.43786e-07 24.9557 2.3244 18.1083 6.61269 12.5196C10.901 6.93102 16.9135 2.91357 23.7178 1.09037C30.5221 -0.732824 37.7378 -0.259881 44.2459 2.43585C50.7539 5.13159 56.1907 9.89946 59.7128 16L51.9532 20.48C49.4173 16.0876 45.5028 12.6547 40.817 10.7138C36.1312 8.77288 30.9359 8.43237 26.0368 9.74507C21.1377 11.0578 16.8087 13.9503 13.7211 17.9741C10.6336 21.9979 8.96 26.9281 8.96 32C8.96 37.0719 10.6336 42.0021 13.7211 46.0259C16.8087 50.0497 21.1377 52.9422 26.0368 54.2549C30.9359 55.5676 36.1312 55.2271 40.817 53.2862C45.5028 51.3453 49.4173 47.9124 51.9532 43.52L59.7128 48Z"/>
</mask>
<path d="M59.7128 48C56.1907 54.1005 50.754 58.8684 44.2459 61.5641C37.7378 64.2599 30.5221 64.7328 23.7178 62.9096C16.9135 61.0864 10.901 57.069 6.61269 51.4804C2.3244 45.8918 6.43786e-07 39.0443 0 32C-6.43786e-07 24.9557 2.3244 18.1083 6.61269 12.5196C10.901 6.93102 16.9135 2.91357 23.7178 1.09037C30.5221 -0.732824 37.7378 -0.259881 44.2459 2.43585C50.7539 5.13159 56.1907 9.89946 59.7128 16L51.9532 20.48C49.4173 16.0876 45.5028 12.6547 40.817 10.7138C36.1312 8.77288 30.9359 8.43237 26.0368 9.74507C21.1377 11.0578 16.8087 13.9503 13.7211 17.9741C10.6336 21.9979 8.96 26.9281 8.96 32C8.96 37.0719 10.6336 42.0021 13.7211 46.0259C16.8087 50.0497 21.1377 52.9422 26.0368 54.2549C30.9359 55.5676 36.1312 55.2271 40.817 53.2862C45.5028 51.3453 49.4173 47.9124 51.9532 43.52L59.7128 48Z" stroke="#94384F" stroke-width="16" mask="url(#path-2-inside-1_57_89)"/>
</svg>
