<svg width="64" height="64" viewBox="0 0 64 64" fill="none" xmlns="http://www.w3.org/2000/svg">
<path d="M63.1142 22.3958C63.5336 23.9056 62.7787 25.4993 61.2688 25.9187C59.759 26.422 58.0814 25.5832 57.662 24.0734C55.9005 18.7051 52.5454 14.0917 47.932 10.7366C43.5703 7.63302 38.1181 5.7038 32.1627 5.7038C-2.81505 5.7038 -2.81505 58.2123 32.1627 58.2123C38.1181 58.2123 43.5703 56.367 47.932 53.1796C52.5454 49.9083 55.9005 45.2949 57.662 39.8427C58.0814 38.3329 59.759 37.578 61.2688 37.9974C62.7787 38.4168 63.5336 40.0944 63.1142 41.6042C61.0172 48.1468 56.8232 53.8506 51.3711 57.7929C45.9189 61.6514 39.3763 64 32.1627 64C-10.3642 64 -10.3642 0 32.1627 0C39.3763 0 45.9189 2.26474 51.3711 6.12319C56.8232 10.1494 61.0172 15.7693 63.1142 22.3958ZM14.8835 42.1075C14.0447 40.6815 14.548 39.0878 15.8901 38.249C17.316 37.4941 18.9936 37.9135 19.7485 39.3394C21.0906 41.5203 22.9359 43.4495 25.1168 44.6239C27.1299 45.882 29.5624 46.637 32.1627 46.637C36.1889 46.637 39.7957 45.0432 42.3121 42.3591C44.9962 39.7588 46.5899 36.0681 46.5899 31.9581C46.5899 27.9318 44.9962 24.2411 42.3121 21.6409C39.7957 19.0406 36.1889 17.363 32.1627 17.363C29.5624 17.363 27.2138 18.0341 25.1168 19.2923C22.9359 20.5505 21.0906 22.3958 19.7485 24.5767C18.9936 26.0026 17.316 26.5059 15.8901 25.751C14.548 24.9961 14.0447 23.2346 14.8835 21.8086C16.645 18.7051 19.1614 16.1048 22.181 14.3434C25.2007 12.5819 28.6397 11.6592 32.1627 11.6592C37.7826 11.6592 42.8153 13.924 46.506 17.6147C50.029 21.3054 52.2937 26.3381 52.2937 31.9581C52.2937 37.578 50.029 42.6107 46.506 46.3014C42.8153 50.076 37.7826 52.3408 32.1627 52.3408C28.6397 52.3408 25.2007 51.3342 22.181 49.6566C19.1614 47.8113 16.645 45.211 14.8835 42.1075Z" fill="#BF405B"/>
</svg>
